<svg width="40" height="40" viewBox="0 0 40 40" fill="none" xmlns="http://www.w3.org/2000/svg">
<path d="M20 40C8.976 40 0 31.024 0 20C0 8.976 8.976 0 20 0C31.024 0 40 8.976 40 20C40 31.024 31.024 40 20 40ZM20 1.136C9.6 1.136 1.136 9.6 1.136 20C1.136 30.4 9.6 38.864 20 38.864C30.4 38.864 38.848 30.4 38.848 20C38.848 9.6 30.4 1.136 20 1.136Z" fill="#19044a"/>
<path d="M19.8878 5.13599C26.0798 5.13599 31.3758 8.91199 33.5518 14.336C31.5838 14.736 31.3278 17.2 31.0238 19.424C30.7518 21.552 30.4478 23.136 29.8558 23.152H29.7918C29.1038 23.152 28.9758 19.856 28.8958 18.256C28.7198 14.464 28.5438 10.56 25.6958 10.56C23.3758 10.56 23.0238 14.16 22.6078 18.928C22.2718 22.672 21.8078 28.16 19.9518 28.16H19.8078C17.9518 28.16 17.4878 22.672 17.1518 18.928C16.7358 14.16 16.3998 10.56 14.0638 10.56C11.2158 10.56 11.0398 14.48 10.8638 18.256C10.7998 19.856 10.6558 23.184 9.96776 23.184L9.90376 23.168C9.31176 23.152 9.00776 21.552 8.73576 19.424C8.44776 17.2 8.17576 14.736 6.20776 14.336C8.41576 8.91199 13.6958 5.13599 19.8878 5.13599Z" fill="#19044a"/>
<path d="M19.904 34.88C28.048 34.88 34.656 28.176 34.656 20.032C34.656 18.768 34.496 17.44 34.208 16.272L34.176 16.256C34.176 16.256 34.128 16.32 34.032 16.32H34.016C33.344 16.32 33.072 18.16 32.88 19.616C32.56 22.016 32.176 24.896 29.648 24.896C29.632 24.896 29.632 24.864 29.616 24.864C27.344 24.752 27.168 21.728 27.024 18.304C26.928 16.112 26.736 12.496 25.792 12.496C24.896 12.496 24.672 16.976 24.464 19.36C23.968 24.816 23.456 30.4 19.968 30.4H19.776C16.288 30.4 15.776 24.816 15.28 19.36C15.072 16.976 14.832 12.528 13.952 12.528C13.008 12.528 12.832 16.128 12.72 18.32C12.56 21.744 12.4 24.752 10.128 24.864C10.128 24.864 10.112 24.864 10.096 24.864C7.56799 24.864 7.18399 22.032 6.86399 19.648C6.67199 18.192 6.41599 16.336 5.72799 16.336H5.75999C5.66399 16.336 5.61599 16.256 5.61599 16.256L5.58399 16.304C5.27999 17.472 5.13599 18.816 5.13599 20.08C5.13599 28.224 11.744 34.912 19.888 34.912H19.904V34.88Z" fill="#19044a"/>
</svg>
